<svg xmlns="http://www.w3.org/2000/svg" viewBox="0 0 48 48"><title>Transfusion</title><g id="Transfusion"><path d="M43,4H41.9a5,5,0,0,0-9.8,0H31a5,5,0,0,0-5,5V25a5,5,0,0,0,4,4.9v3A1.14,1.14,0,0,0,31.15,34h.79c-.58,5.26-5.64,9.21-11.94,7.77v-11c0-2.74,2-3.17,2-6.6V13a3,3,0,0,0-4-2.82V7a3,3,0,0,0-4.12-2.78A3,3,0,0,0,8,5V6.18A3,3,0,0,0,4,9v7a4,4,0,0,0-4,4c0,4.35-.23,5.18.88,6.29C4.91,30.33,4,28.08,4,47a1,1,0,0,0,2,0C6,27.92,7,29.55,2.29,24.88,1.9,24.48,2,24.52,2,20a2,2,0,0,1,2-2v4a1,1,0,0,0,2,0V9A1,1,0,0,1,8,9v8a1,1,0,0,0,2,0V5a1,1,0,0,1,2,0V17a1,1,0,0,0,2,0V7a1,1,0,0,1,2,0V17a1,1,0,0,0,2,0V13a1,1,0,0,1,2,0V24.2c0,2.74-2,3.17-2,6.6V41.05a9.07,9.07,0,0,1-4.12-4.2A3,3,0,0,0,16,34V30a3,3,0,0,0-3-3H11a3,3,0,0,0-3,3v4a3,3,0,0,0,3,3h.76A11.07,11.07,0,0,0,18,43.24V47a1,1,0,0,0,2,0V43.81c7.7,1.42,13.39-3.65,14-9.81h.9A1.14,1.14,0,0,0,36,32.85V30h2v3a1,1,0,0,0,1,1h1v1a1,1,0,0,0,2,0V34h1a1,1,0,0,0,1-1V29.9A5,5,0,0,0,48,25V9A5,5,0,0,0,43,4ZM11,35c-1.33,0-1-1.38-1-5,0-1.2,1.17-1,3-1,1.33,0,1,1.38,1,5a1,1,0,0,1-.78,1A16.36,16.36,0,0,1,13,31a1,1,0,0,0-2,0v2C11,35.2,11.45,35,11,35Zm23-3H32V30h2Zm8,0H40V30h2Zm4-7a3,3,0,0,1-3,3H31a3,3,0,0,1-3-3V9a3,3,0,0,1,3-3c1.86,0,3,.2,3-1,0-4,6-4,6,0,0,1.2,1.17,1,3,1a3,3,0,0,1,3,3Z"/><path d="M43,8H31a1,1,0,0,0-1,1V25a1,1,0,0,0,1,1H43a1,1,0,0,0,1-1V9A1,1,0,0,0,43,8ZM32,24V22h1a1,1,0,0,0,0-2H32V18h2a1,1,0,0,0,0-2H32V14h1a1,1,0,0,0,0-2H32V10H42v6H38a1,1,0,0,0,0,2h4v6Z"/><path d="M37,6a1,1,0,0,0,0-2A1,1,0,0,0,37,6Z"/></g></svg>