<svg id="Layer_1" data-name="Layer 1" xmlns="http://www.w3.org/2000/svg" viewBox="0 0 48 48"><defs><style>.cls-1{fill:none;stroke:#000;stroke-linecap:round;stroke-linejoin:round;stroke-width:2px;}</style></defs><title>drug_1</title><path class="cls-1" d="M35.18,16.64A5.72,5.72,0,0,1,36,19.58V41.31A2.68,2.68,0,0,1,33.34,44H14.66A2.68,2.68,0,0,1,12,41.31V19.58a5.72,5.72,0,0,1,.82-2.94L18,8H30Z"/><path class="cls-1" d="M19.18,4h9.64A1.18,1.18,0,0,1,30,5.18V8a0,0,0,0,1,0,0H18a0,0,0,0,1,0,0V5.18A1.18,1.18,0,0,1,19.18,4Z"/><line class="cls-1" x1="24" y1="26" x2="24" y2="34"/><line class="cls-1" x1="20" y1="30" x2="28" y2="30"/><rect class="cls-1" x="16" y="22" width="16" height="16"/><rect class="cls-1" x="-292" y="-224" width="700" height="700"/></svg>