<svg id="Layer_1" data-name="Layer 1" xmlns="http://www.w3.org/2000/svg" viewBox="0 0 48 48"><defs><style>.cls-1{fill:none;stroke:#000;stroke-linecap:round;stroke-linejoin:round;stroke-width:2px;}</style></defs><title>biling</title><path class="cls-1" d="M11,4H34.63A9.37,9.37,0,0,1,44,13.37V44H17V9"/><line class="cls-1" x1="31" y1="11" x2="31" y2="19"/><line class="cls-1" x1="35" y1="15" x2="27" y2="15"/><line class="cls-1" x1="22" y1="26" x2="39" y2="26"/><line class="cls-1" x1="31" y1="30" x2="39" y2="30"/><line class="cls-1" x1="31" y1="34" x2="39" y2="34"/><path class="cls-1" d="M4,19V9.18A5.18,5.18,0,0,1,9.18,4h2.64A5.18,5.18,0,0,1,17,9.18V19Z"/><line class="cls-1" x1="24" y1="31" x2="24" y2="32"/><line class="cls-1" x1="24" y1="40" x2="24" y2="41"/><path class="cls-1" d="M24,36a2,2,0,1,1,2-2"/><path class="cls-1" d="M24,36a2,2,0,1,1-2,2"/><rect class="cls-1" x="-88" y="-224" width="700" height="700"/></svg>