<svg id="Layer_1" data-name="Layer 1" xmlns="http://www.w3.org/2000/svg" viewBox="0 0 48 48"><defs><style>.cls-1{fill:none;stroke:#000;stroke-linecap:round;stroke-linejoin:round;stroke-width:2px;}</style></defs><title>stethoscope</title><path class="cls-1" d="M37.16,5H38a3.32,3.32,0,0,1,3.36,2.93l1.2,4.56A8.75,8.75,0,0,1,42.69,17a9.74,9.74,0,0,1-9.5,7H28.81a9.74,9.74,0,0,1-9.5-7,8.75,8.75,0,0,1,.08-4.49l1.2-4.56A3.32,3.32,0,0,1,24,5h0"/><circle class="cls-1" cx="8" cy="19" r="3"/><line class="cls-1" x1="37" y1="4" x2="37" y2="6"/><line class="cls-1" x1="25" y1="4" x2="25" y2="6"/><path class="cls-1" d="M8,22V32.5A11.5,11.5,0,0,0,19.5,44h0A11.5,11.5,0,0,0,31,32.5V24"/><rect class="cls-1" x="-224" y="-156" width="700" height="700"/></svg>