<?xml version="1.0" encoding="utf-8"?>
<!-- Generator: Adobe Illustrator 16.0.0, SVG Export Plug-In . SVG Version: 6.00 Build 0)  -->
<!DOCTYPE svg PUBLIC "-//W3C//DTD SVG 1.1//EN" "http://www.w3.org/Graphics/SVG/1.1/DTD/svg11.dtd">
<svg version="1.1" id="Layer_1" xmlns="http://www.w3.org/2000/svg" xmlns:xlink="http://www.w3.org/1999/xlink" x="0px" y="0px"
	 width="128px" height="128px" viewBox="0 0 128 128" enable-background="new 0 0 128 128" xml:space="preserve">
<g>
	<g>
		<g>
			<path fill="#282D33" d="M125.322,80.42H98.014c-2.397,0-4.348-1.963-4.348-4.375V55.453c0-2.413,1.95-4.375,4.348-4.375h11.863
				l0.478,0.29c6.618,4.011,12.169,9.181,15.23,14.186c3.92,6.408,2.346,11.16,0.335,14.018L125.322,80.42z M98.014,55.078
				c-0.191,0-0.348,0.168-0.348,0.375v20.592c0,0.207,0.156,0.375,0.348,0.375h25.159c1.371-2.561,1.04-5.445-1.001-8.779
				c-2.667-4.362-7.54-8.919-13.418-12.563H98.014z"/>
		</g>
		<g>
			<path fill="#282D33" d="M100.659,98.086c-0.167,0-0.334-0.008-0.502-0.021l0.322-3.986c0.829,0.055,1.585-0.395,2.055-0.795
				c1.469-1.252,2.511-3.656,2.718-6.277l3.988,0.316c-0.294,3.695-1.831,7.063-4.112,9.006
				C103.771,97.484,102.235,98.086,100.659,98.086z"/>
		</g>
		<g>
			<path fill="#282D33" d="M77.196,98.086c-0.166,0-0.333-0.008-0.501-0.021l0.322-3.986c0.844,0.057,1.583-0.395,2.053-0.795
				c1.469-1.25,2.511-3.656,2.718-6.277l3.989,0.316c-0.294,3.695-1.831,7.063-4.113,9.006
				C80.308,97.484,78.772,98.086,77.196,98.086z"/>
		</g>
		<g>
			<path fill="#282D33" d="M117.27,98.201H48.229v-4h69.041c2.318,0,4.205-1.92,4.205-4.279h4.001
				C125.476,94.486,121.794,98.201,117.27,98.201z"/>
		</g>
		<g>
			<path fill="#282D33" d="M100.824,89.473C100.824,89.473,100.824,89.473,100.824,89.473H70.907
				c-12.936,0-22.044-12.814-27.486-20.471l-0.306-0.43c-1.87-2.629-4.395-3.1-4.501-3.119l-23.765-4.64
				c-4.577-0.111-8.267-3.903-8.267-8.548c0-1.397,0.34-2.753,0.993-3.983L0.394,34.513c-0.537-1.028-0.524-2.146,0.034-3.067
				c0.634-1.046,1.862-1.646,3.368-1.646h7.402c2.063,0,4.154,1.071,5.112,2.584l10.577,11.334H60.94l1.229-2.229
				c0.68-1.182,1.546-2.239,2.459-3.008l0.559-0.471h14.447l0.54,0.417c0.958,0.74,1.913,1.842,2.62,3.024l1.301,2.267h1.082
				c16.709,0,33.983,11.334,40.407,21.835c3.572,5.838,2.523,10.271,1.016,12.961C122.124,86.498,108.415,89.473,100.824,89.473z
				 M4.533,33.799l7.696,14.752l-0.74,1.005c-0.592,0.803-0.905,1.74-0.905,2.708c0,2.509,2.006,4.55,4.473,4.55l0.383,0.037
				l23.884,4.665c0.095,0.013,4.169,0.685,7.051,4.734l0.307,0.432c4.995,7.027,13.354,18.789,24.226,18.789h29.916
				c8.315,0,19.2-3.408,22.286-8.914c1.454-2.594,1.147-5.51-0.938-8.918c-5.885-9.622-22.154-19.923-36.994-19.923h-3.402
				l-2.431-4.243c-0.312-0.52-0.727-1.049-1.145-1.465H66.716c-0.389,0.417-0.764,0.924-1.062,1.441l-2.352,4.267H25.146
				L13.05,34.755l-0.126-0.24c-0.146-0.242-0.936-0.715-1.727-0.715H4.533z"/>
		</g>
		<g>
			<rect x="25.62" y="29.991" fill="#282D33" width="91.157" height="4"/>
		</g>
		<g>
			<g>
				
					<rect x="19.943" y="38.624" transform="matrix(0.7114 0.7028 -0.7028 0.7114 38.5329 -2.1989)" fill="#282D33" width="4" height="14.381"/>
			</g>
			<g>
				
					<rect x="2.951" y="47.517" transform="matrix(0.9652 0.2617 -0.2617 0.9652 13.3085 -0.9187)" fill="#282D33" width="14.306" height="4"/>
			</g>
			<g>
				
					<rect x="11.964" y="56.037" transform="matrix(0.256 0.9667 -0.9667 0.256 70.3797 24.6258)" fill="#282D33" width="14.453" height="4"/>
			</g>
		</g>
		<g>
			<rect x="69.2" y="31.991" fill="#282D33" width="4" height="9.208"/>
		</g>
	</g>
	<g>
		<g>
			<rect x="68.399" y="55.567" fill="#282D33" width="4" height="19.401"/>
		</g>
		<g>
			<rect x="60.813" y="63.268" fill="#282D33" width="19.172" height="4"/>
		</g>
	</g>
</g>
</svg>
